<svg width="222" height="63">
  <g fill="#7c3aed">
    <path d="M37.89-43.87L37.89-41.12C34.17-43.3 29.65-44.76 25.04-44.76 11.31-44.76 3.23-33.77 3.23-22.05 3.23-10.42 11.31 0.65 25.04 0.65 29.89 0.65 34.25-0.81 37.89-3.23L37.89 0 49.12 0 49.12-43.87ZM37.89-13.17C35.14-10.83 31.35-9.45 27.06-9.45 19.15-9.45 14.06-15.43 14.06-22.05 14.06-28.6 19.07-34.58 27.06-34.58 31.26-34.58 35.14-33.12 37.89-30.78ZM85.23-34.58L85.23-43.87 72.95-43.87 72.95-60.91 61.64-60.91 61.64-43.87 55.42-43.87 55.42-34.58 61.64-34.58 61.64-13.17C61.64-3.96 67.54 0.65 74.89 0.65 81.19 0.65 84.58-0.81 85.07-0.97L85.07-9.37C83.53-9.21 81.84-8.97 79.9-8.97 74.24-8.97 72.95-11.23 72.95-19.07L72.95-34.58ZM103.81-43.87L92.5-43.87 92.5 0 103.81 0 103.81-21.17C103.81-26.9 106.88-32.64 114.96-32.64 117.3-32.64 120.37-31.99 120.37-31.99L120.37-44.19C119.48-44.51 118.43-44.68 117.63-44.68 111.4-44.59 106.8-41.85 103.81-37.73ZM158.5-43.87L158.5-41.12C154.79-43.3 150.26-44.76 145.66-44.76 131.92-44.76 123.85-33.77 123.85-22.05 123.85-10.42 131.92 0.65 145.66 0.65 150.51 0.65 154.87-0.81 158.5-3.23L158.5 0 169.73 0 169.73-43.87ZM158.5-13.17C155.76-10.83 151.96-9.45 147.68-9.45 139.76-9.45 134.67-15.43 134.67-22.05 134.67-28.6 139.68-34.58 147.68-34.58 151.88-34.58 155.76-33.12 158.5-30.78ZM205.84-34.58L205.84-43.87 193.57-43.87 193.57-60.91 182.26-60.91 182.26-43.87 176.03-43.87 176.03-34.58 182.26-34.58 182.26-13.17C182.26-3.96 188.15 0.65 195.5 0.65 201.81 0.65 205.2-0.81 205.68-0.97L205.68-9.37C204.15-9.21 202.45-8.97 200.51-8.97 194.86-8.97 193.57-11.23 193.57-19.07L193.57-34.58ZM213.36 0L224.59 0 224.59-43.87 213.36-43.87ZM218.93-48.63C222.49-48.63 225.31-51.54 225.31-55.18 225.31-58.81 222.49-61.8 218.93-61.8 215.38-61.8 212.47-58.81 212.47-55.18 212.47-51.54 215.38-48.63 218.93-48.63Z" transform="translate(-3.2300000190734863, 61.79999923706055)"/>
  </g>
</svg>
